<?xml version="1.0" standalone="no"?>
<!DOCTYPE svg PUBLIC "-//W3C//DTD SVG 20010904//EN"
 "http://www.w3.org/TR/2001/REC-SVG-20010904/DTD/svg10.dtd">
<svg version="1.0" xmlns="http://www.w3.org/2000/svg"
 width="346.000000pt" height="346.000000pt" viewBox="0 0 346.000000 346.000000"
 preserveAspectRatio="xMidYMid meet">
<metadata>
Created by potrace 1.14, written by Peter Selinger 2001-2017
</metadata>
<g transform="translate(0.000000,346.000000) scale(0.100000,-0.100000)"
fill="#000000" stroke="none">
<path d="M839 2176 c-90 -24 -141 -65 -364 -291 -234 -238 -253 -251 -312
-223 -37 18 -44 75 -14 117 27 37 26 39 -5 52 -40 14 -64 2 -85 -44 -35 -78
-15 -162 45 -195 42 -22 139 -21 191 3 22 10 72 52 110 93 285 304 371 382
448 403 64 18 138 14 211 -11 72 -26 96 -19 96 25 0 25 -39 46 -135 70 -70 18
-123 18 -186 1z"/>
<path d="M3321 2151 c-11 -11 -45 -55 -75 -99 l-56 -79 -68 -6 c-149 -14 -212
-63 -212 -165 0 -29 4 -62 10 -72 12 -22 73 -44 102 -37 12 4 29 2 39 -3 9 -6
37 -7 62 -4 38 6 47 11 61 41 20 43 20 43 -5 43 -13 0 -19 5 -16 13 2 6 59 90
126 185 66 95 121 179 121 187 0 23 -66 19 -89 -4z m-181 -258 c0 -16 -66
-103 -82 -109 -23 -7 -58 13 -58 32 0 28 21 55 53 69 34 15 87 20 87 8z"/>
<path d="M1617 2063 l-74 -98 -88 -12 c-137 -19 -195 -70 -195 -172 0 -28 7
-48 24 -68 21 -24 32 -28 74 -28 28 0 54 -3 58 -7 9 -10 50 -10 82 -2 21 6 52
49 52 73 0 5 -9 11 -20 13 -18 3 -2 29 109 188 72 102 129 190 127 195 -1 6
-19 11 -38 13 -35 3 -39 0 -111 -95z m-123 -181 c8 -13 -74 -112 -93 -112 -9
0 -26 6 -37 14 -18 14 -18 17 -4 43 24 43 117 82 134 55z"/>
<path d="M765 1976 c-58 -18 -96 -40 -126 -73 -58 -62 -76 -140 -41 -183 20
-25 89 -38 120 -21 14 7 23 8 27 1 7 -12 85 -13 100 -2 6 4 22 22 35 41 22 32
23 34 5 47 -20 15 -22 10 69 124 47 59 47 80 0 80 -19 0 -45 -5 -56 -11 -14
-8 -23 -8 -31 0 -14 14 -51 13 -102 -3z m55 -96 c0 -46 -106 -128 -132 -102
-16 16 7 66 44 97 37 31 88 34 88 5z"/>
<path d="M1086 1977 c-18 -6 -54 -47 -113 -130 -47 -67 -88 -129 -91 -139 -4
-16 3 -18 50 -18 l54 0 78 105 c72 98 96 121 96 95 0 -6 -18 -37 -39 -68 -39
-56 -45 -69 -42 -105 3 -42 119 -45 145 -4 8 12 17 33 21 46 7 22 5 24 -24 18
l-31 -6 45 60 c52 71 60 120 24 140 -27 14 -137 18 -173 6z"/>
<path d="M1745 1978 c-31 -17 -135 -120 -151 -150 -32 -60 -7 -119 58 -136 88
-22 -3 -27 -609 -32 -351 -3 -639 -6 -641 -8 -2 -1 -2 -17 0 -34 l3 -33 657
-3 657 -2 25 22 c34 31 266 357 266 374 0 11 -25 14 -122 14 -70 0 -132 -5
-143 -12z m106 -86 c-9 -18 -106 -112 -115 -112 -2 0 -11 3 -20 6 -28 11 -17
41 30 83 35 31 55 41 81 41 29 0 32 -2 24 -18z"/>
<path d="M2043 1973 c-36 -37 -115 -162 -109 -172 4 -6 25 -11 46 -11 34 0 43
6 76 45 20 25 43 45 51 45 9 0 2 -15 -22 -42 -123 -145 -145 -176 -145 -207 0
-25 6 -34 26 -41 16 -6 284 -9 722 -8 l697 3 3 32 3 33 -657 2 c-427 2 -658 7
-661 13 -1 6 47 73 107 150 60 77 109 147 107 155 -2 12 -24 16 -114 18 -97 2
-115 0 -130 -15z"/>
<path d="M2312 1953 c-66 -86 -132 -194 -132 -217 0 -35 33 -50 104 -50 43 1
62 5 71 18 11 14 14 15 25 1 8 -9 29 -15 56 -15 37 0 46 5 68 33 31 41 33 57
6 57 -17 0 -8 16 50 89 80 101 86 121 38 121 -61 0 -77 -12 -158 -116 -64 -82
-86 -104 -106 -104 -13 0 -24 4 -24 10 0 5 27 47 60 93 74 103 76 117 16 117
-39 0 -48 -4 -74 -37z"/>
<path d="M2724 1979 c-26 -9 -49 -37 -133 -156 -96 -137 -95 -133 -28 -133
l56 0 78 102 c74 96 103 124 103 99 0 -7 -18 -34 -40 -62 -63 -80 -65 -122 -6
-142 41 -14 100 6 114 38 20 43 16 58 -14 51 -29 -8 -30 -10 28 73 65 93 46
131 -70 135 -38 1 -78 -1 -88 -5z"/>
<path d="M1570 1527 c-42 -15 -66 -53 -56 -91 7 -27 14 -32 123 -76 15 -6 21
-15 17 -25 -8 -21 -37 -19 -59 5 -19 21 -95 29 -95 10 0 -24 26 -63 51 -76 57
-29 154 -10 179 35 29 56 0 104 -80 130 -58 19 -70 34 -32 39 13 2 25 -3 28
-12 4 -11 19 -16 46 -16 35 0 39 3 36 21 -7 48 -94 79 -158 56z"/>
<path d="M752 1398 l3 -133 100 0 100 0 3 38 3 37 -60 0 -61 0 0 95 0 95 -45
0 -46 0 3 -132z"/>
<path d="M1016 1404 c-25 -69 -44 -130 -40 -135 3 -5 21 -9 40 -9 28 0 36 5
44 25 8 21 16 25 48 25 32 0 41 -5 50 -25 9 -20 19 -25 46 -25 19 0 37 4 40 9
4 5 -15 66 -40 135 l-47 126 -47 0 -47 0 -47 -126z m109 -11 c5 -19 2 -23 -14
-23 -23 0 -24 3 -15 38 7 26 18 20 29 -15z"/>
<path d="M1262 1398 l3 -133 31 -3 c39 -4 52 12 56 68 l3 45 38 -57 c34 -52
41 -58 73 -58 48 0 52 21 16 77 -30 45 -30 47 -11 62 10 9 22 30 25 48 5 26 1
37 -19 57 -24 24 -32 26 -122 26 l-96 0 3 -132z m143 52 c0 -9 -11 -16 -27
-18 -23 -3 -28 1 -28 18 0 17 5 21 28 18 16 -2 27 -9 27 -18z"/>
<path d="M1952 1398 l3 -133 100 0 100 0 0 35 0 35 -57 3 -58 3 0 79 c0 103
-3 110 -51 110 l-40 0 3 -132z"/>
<path d="M2177 1523 c-4 -3 -7 -59 -7 -123 0 -89 3 -120 14 -129 9 -8 48 -11
112 -9 l99 3 3 33 3 32 -70 0 c-63 0 -71 2 -71 19 0 16 10 20 60 26 58 7 60 8
60 36 0 29 0 29 -60 29 -47 0 -60 3 -60 15 0 12 14 15 65 15 l65 0 0 30 0 30
-103 0 c-57 0 -107 -3 -110 -7z"/>
<path d="M2412 1398 l3 -133 40 0 40 0 3 53 c2 28 7 52 12 52 5 0 21 -24 37
-52 24 -46 33 -53 61 -56 63 -6 67 2 33 64 l-30 57 19 25 c27 33 25 68 -5 97
-22 23 -32 25 -120 25 l-96 0 3 -132z m143 52 c0 -9 -11 -16 -27 -18 -23 -3
-28 1 -28 18 0 17 5 21 28 18 16 -2 27 -9 27 -18z"/>
<path d="M2682 1398 c3 -144 5 -148 64 -134 24 6 24 7 24 136 l0 130 -45 0
-46 0 3 -132z"/>
<path d="M2782 1398 l3 -133 31 -3 c39 -4 52 12 56 72 l3 48 43 -62 c41 -58
45 -61 80 -58 l37 3 0 130 0 130 -40 0 -40 0 -5 -57 -5 -56 -40 59 c-38 57
-42 59 -83 59 l-43 0 3 -132z"/>
</g>
</svg>
